<svg width="101" height="21" viewBox="0 0 101 21" fill="none" xmlns="http://www.w3.org/2000/svg">
<path d="M9.14648 12.1523C9.14648 13.0182 8.94466 13.7539 8.54102 14.3594C8.14388 14.9583 7.60352 15.4141 6.91992 15.7266C6.24284 16.0391 5.47786 16.1953 4.625 16.1953C3.77214 16.1953 3.00391 16.0391 2.32031 15.7266C1.63672 15.4141 1.09635 14.9583 0.699219 14.3594C0.302083 13.7539 0.103516 13.0182 0.103516 12.1523C0.103516 11.5859 0.210938 11.0684 0.425781 10.5996C0.647135 10.1243 0.95638 9.71094 1.35352 9.35938C1.75716 9.00781 2.23242 8.73763 2.7793 8.54883C3.33268 8.35352 3.94141 8.25586 4.60547 8.25586C5.47786 8.25586 6.25586 8.42513 6.93945 8.76367C7.62305 9.0957 8.16016 9.55469 8.55078 10.1406C8.94792 10.7266 9.14648 11.3971 9.14648 12.1523ZM7.33008 12.1133C7.33008 11.5859 7.21615 11.1204 6.98828 10.7168C6.76042 10.3066 6.44141 9.98763 6.03125 9.75977C5.62109 9.5319 5.14583 9.41797 4.60547 9.41797C4.05208 9.41797 3.57357 9.5319 3.16992 9.75977C2.77279 9.98763 2.46354 10.3066 2.24219 10.7168C2.02083 11.1204 1.91016 11.5859 1.91016 12.1133C1.91016 12.6602 2.01758 13.1289 2.23242 13.5195C2.45378 13.9036 2.76628 14.1999 3.16992 14.4082C3.58008 14.61 4.0651 14.7109 4.625 14.7109C5.1849 14.7109 5.66667 14.61 6.07031 14.4082C6.47396 14.1999 6.7832 13.9036 6.99805 13.5195C7.2194 13.1289 7.33008 12.6602 7.33008 12.1133ZM8.81445 5.48242C8.81445 6.17253 8.63216 6.79427 8.26758 7.34766C7.90299 7.90104 7.40495 8.33724 6.77344 8.65625C6.14193 8.97526 5.42578 9.13477 4.625 9.13477C3.8112 9.13477 3.08529 8.97526 2.44727 8.65625C1.81576 8.33724 1.32096 7.90104 0.962891 7.34766C0.604818 6.79427 0.425781 6.17253 0.425781 5.48242C0.425781 4.6556 0.604818 3.95247 0.962891 3.37305C1.32747 2.79362 1.82552 2.35091 2.45703 2.04492C3.08854 1.73893 3.80794 1.58594 4.61523 1.58594C5.42904 1.58594 6.15169 1.73893 6.7832 2.04492C7.41471 2.35091 7.90951 2.79362 8.26758 3.37305C8.63216 3.95247 8.81445 4.6556 8.81445 5.48242ZM7.00781 5.51172C7.00781 5.03646 6.9069 4.61654 6.70508 4.25195C6.50326 3.88737 6.22331 3.60091 5.86523 3.39258C5.50716 3.17773 5.09049 3.07031 4.61523 3.07031C4.13997 3.07031 3.72331 3.17122 3.36523 3.37305C3.01367 3.56836 2.73698 3.84831 2.53516 4.21289C2.33984 4.57747 2.24219 5.01042 2.24219 5.51172C2.24219 6 2.33984 6.42643 2.53516 6.79102C2.73698 7.1556 3.01693 7.4388 3.375 7.64062C3.73307 7.84245 4.14974 7.94336 4.625 7.94336C5.10026 7.94336 5.51367 7.84245 5.86523 7.64062C6.22331 7.4388 6.50326 7.1556 6.70508 6.79102C6.9069 6.42643 7.00781 6 7.00781 5.51172ZM20.8164 14.7109C21.2461 14.7109 21.6432 14.623 22.0078 14.4473C22.3724 14.2715 22.6719 14.0306 22.9062 13.7246C23.1406 13.4121 23.2741 13.0573 23.3066 12.6602H25.0254C24.9928 13.2852 24.7812 13.8678 24.3906 14.4082C24.0065 14.9421 23.502 15.375 22.877 15.707C22.252 16.0326 21.5651 16.1953 20.8164 16.1953C20.0221 16.1953 19.3288 16.0553 18.7363 15.7754C18.1504 15.4954 17.6621 15.1113 17.2715 14.623C16.8874 14.1348 16.5977 13.5749 16.4023 12.9434C16.2135 12.3053 16.1191 11.6315 16.1191 10.9219V10.5117C16.1191 9.80208 16.2135 9.13151 16.4023 8.5C16.5977 7.86198 16.8874 7.29883 17.2715 6.81055C17.6621 6.32227 18.1504 5.93815 18.7363 5.6582C19.3288 5.37826 20.0221 5.23828 20.8164 5.23828C21.6432 5.23828 22.3659 5.40755 22.9844 5.74609C23.6029 6.07812 24.0879 6.53385 24.4395 7.11328C24.7975 7.6862 24.9928 8.33724 25.0254 9.06641H23.3066C23.2741 8.63021 23.1504 8.23633 22.9355 7.88477C22.7272 7.5332 22.4408 7.25326 22.0762 7.04492C21.7181 6.83008 21.2982 6.72266 20.8164 6.72266C20.263 6.72266 19.7975 6.83333 19.4199 7.05469C19.0488 7.26953 18.7526 7.5625 18.5312 7.93359C18.3164 8.29818 18.1602 8.70508 18.0625 9.1543C17.9714 9.59701 17.9258 10.0495 17.9258 10.5117V10.9219C17.9258 11.3841 17.9714 11.8398 18.0625 12.2891C18.1536 12.7383 18.3066 13.1452 18.5215 13.5098C18.7428 13.8743 19.0391 14.1673 19.4102 14.3887C19.7878 14.6035 20.2565 14.7109 20.8164 14.7109ZM31.4414 16.1953C30.7057 16.1953 30.0384 16.0716 29.4395 15.8242C28.847 15.5703 28.3359 15.2155 27.9062 14.7598C27.4831 14.304 27.1576 13.7637 26.9297 13.1387C26.7018 12.5137 26.5879 11.8301 26.5879 11.0879V10.6777C26.5879 9.81836 26.7148 9.05339 26.9688 8.38281C27.2227 7.70573 27.5677 7.13281 28.0039 6.66406C28.4401 6.19531 28.9349 5.84049 29.4883 5.59961C30.0417 5.35872 30.6146 5.23828 31.207 5.23828C31.9622 5.23828 32.6133 5.36849 33.1602 5.62891C33.7135 5.88932 34.166 6.25391 34.5176 6.72266C34.8691 7.1849 35.1296 7.73177 35.2988 8.36328C35.4681 8.98828 35.5527 9.67188 35.5527 10.4141V11.2246H27.6621V9.75H33.7461V9.61328C33.7201 9.14453 33.6224 8.6888 33.4531 8.24609C33.2904 7.80339 33.0299 7.4388 32.6719 7.15234C32.3138 6.86589 31.8255 6.72266 31.207 6.72266C30.7969 6.72266 30.4193 6.81055 30.0742 6.98633C29.7292 7.1556 29.4329 7.40951 29.1855 7.74805C28.9382 8.08659 28.7461 8.5 28.6094 8.98828C28.4727 9.47656 28.4043 10.0397 28.4043 10.6777V11.0879C28.4043 11.5892 28.4727 12.0612 28.6094 12.5039C28.7526 12.9401 28.9577 13.3242 29.2246 13.6562C29.498 13.9883 29.8268 14.2487 30.2109 14.4375C30.6016 14.6263 31.0443 14.7207 31.5391 14.7207C32.1771 14.7207 32.7174 14.5905 33.1602 14.3301C33.6029 14.0697 33.9902 13.7214 34.3223 13.2852L35.416 14.1543C35.1882 14.4993 34.8984 14.8281 34.5469 15.1406C34.1953 15.4531 33.7624 15.707 33.248 15.9023C32.7402 16.0977 32.138 16.1953 31.4414 16.1953ZM44.8301 10.0137V11.4785H39.2441V10.0137H44.8301ZM39.625 5.43359V16H37.8184V5.43359H39.625ZM46.2949 5.43359V16H44.4785V5.43359H46.2949ZM53.5117 5.43359V16H51.6953V5.43359H53.5117ZM57.0566 5.43359V6.89844H48.2188V5.43359H57.0566ZM60.9727 10.9609H62.9258L59.8691 16H57.916L60.9727 10.9609ZM62.4863 5.43359H66.9004V16H65.0938V6.89844H62.4863C61.972 6.89844 61.5521 6.98633 61.2266 7.16211C60.901 7.33138 60.6634 7.55273 60.5137 7.82617C60.3639 8.09961 60.2891 8.38281 60.2891 8.67578C60.2891 8.96224 60.3574 9.23893 60.4941 9.50586C60.6309 9.76628 60.8457 9.98112 61.1387 10.1504C61.4316 10.3197 61.8092 10.4043 62.2715 10.4043H65.582V11.8887H62.2715C61.666 11.8887 61.1289 11.8073 60.6602 11.6445C60.1914 11.4818 59.7943 11.2572 59.4688 10.9707C59.1432 10.6777 58.8958 10.3359 58.7266 9.94531C58.5573 9.54818 58.4727 9.11849 58.4727 8.65625C58.4727 8.19401 58.5605 7.76758 58.7363 7.37695C58.9186 6.98633 59.179 6.64453 59.5176 6.35156C59.8626 6.05859 60.2826 5.83398 60.7773 5.67773C61.2786 5.51497 61.8483 5.43359 62.4863 5.43359ZM76.5879 0.833984H78.0723C78.0723 1.47201 77.9746 1.97982 77.7793 2.35742C77.584 2.72852 77.3171 3.01497 76.9785 3.2168C76.6465 3.41862 76.2689 3.57161 75.8457 3.67578C75.429 3.77995 74.9961 3.88086 74.5469 3.97852C73.987 4.0957 73.4661 4.28125 72.9844 4.53516C72.5091 4.78255 72.099 5.13411 71.7539 5.58984C71.4154 6.04557 71.1647 6.63802 71.002 7.36719C70.8457 8.09635 70.8034 8.99805 70.875 10.0723V10.9707H69.3906V10.0723C69.3906 8.86784 69.5046 7.81641 69.7324 6.91797C69.9668 6.01953 70.2956 5.26107 70.7188 4.64258C71.1419 4.02409 71.6432 3.53255 72.2227 3.16797C72.8086 2.80339 73.4531 2.55273 74.1562 2.41602C74.6641 2.31836 75.1003 2.21419 75.4648 2.10352C75.8294 1.98633 76.1061 1.83008 76.2949 1.63477C76.4902 1.43945 76.5879 1.17253 76.5879 0.833984ZM74.4492 6.03906C75.1393 6.03906 75.7546 6.15951 76.2949 6.40039C76.8353 6.64128 77.2943 6.97656 77.6719 7.40625C78.0495 7.83594 78.3359 8.34375 78.5312 8.92969C78.7331 9.50911 78.834 10.1406 78.834 10.8242V11.0391C78.834 11.7747 78.7266 12.4583 78.5117 13.0898C78.3034 13.7148 77.9941 14.2617 77.584 14.7305C77.1803 15.1927 76.6855 15.554 76.0996 15.8145C75.5202 16.0749 74.8594 16.2051 74.1172 16.2051C73.375 16.2051 72.7109 16.0749 72.125 15.8145C71.5456 15.554 71.0508 15.1927 70.6406 14.7305C70.2305 14.2617 69.918 13.7148 69.7031 13.0898C69.4948 12.4583 69.3906 11.7747 69.3906 11.0391V10.8242C69.3906 10.6615 69.4199 10.502 69.4785 10.3457C69.5371 10.1895 69.6087 10.0299 69.6934 9.86719C69.7845 9.70443 69.8659 9.5319 69.9375 9.34961C70.1784 8.76367 70.5072 8.22005 70.9238 7.71875C71.347 7.21745 71.8516 6.8138 72.4375 6.50781C73.0299 6.19531 73.7005 6.03906 74.4492 6.03906ZM74.0977 7.51367C73.4336 7.51367 72.8867 7.66667 72.457 7.97266C72.0339 8.27865 71.7181 8.68555 71.5098 9.19336C71.3014 9.69466 71.1973 10.2383 71.1973 10.8242V11.0391C71.1973 11.5339 71.2559 12.0026 71.373 12.4453C71.4902 12.888 71.666 13.2819 71.9004 13.627C72.1413 13.9655 72.444 14.2324 72.8086 14.4277C73.1797 14.623 73.6159 14.7207 74.1172 14.7207C74.6185 14.7207 75.0514 14.623 75.416 14.4277C75.7806 14.2324 76.0801 13.9655 76.3145 13.627C76.5488 13.2819 76.7246 12.888 76.8418 12.4453C76.959 12.0026 77.0176 11.5339 77.0176 11.0391V10.8242C77.0176 10.3815 76.959 9.96159 76.8418 9.56445C76.7246 9.16732 76.5456 8.81576 76.3047 8.50977C76.0703 8.20378 75.7676 7.96289 75.3965 7.78711C75.0319 7.60482 74.599 7.51367 74.0977 7.51367ZM82.5156 7.46484V20.0625H80.6992V5.43359H82.3594L82.5156 7.46484ZM89.6348 10.6289V10.834C89.6348 11.6022 89.5436 12.3151 89.3613 12.9727C89.179 13.6237 88.9121 14.1901 88.5605 14.6719C88.2155 15.1536 87.7891 15.528 87.2812 15.7949C86.7734 16.0618 86.1908 16.1953 85.5332 16.1953C84.8626 16.1953 84.2702 16.0846 83.7559 15.8633C83.2415 15.6419 82.8053 15.3197 82.4473 14.8965C82.0892 14.4733 81.8027 13.9655 81.5879 13.373C81.3796 12.7806 81.2363 12.1133 81.1582 11.3711V10.2773C81.2363 9.49609 81.3828 8.79622 81.5977 8.17773C81.8125 7.55924 82.0957 7.0319 82.4473 6.5957C82.8053 6.15299 83.2383 5.81771 83.7461 5.58984C84.2539 5.35547 84.8398 5.23828 85.5039 5.23828C86.168 5.23828 86.7572 5.36849 87.2715 5.62891C87.7858 5.88281 88.2188 6.2474 88.5703 6.72266C88.9219 7.19792 89.1855 7.76758 89.3613 8.43164C89.5436 9.08919 89.6348 9.82161 89.6348 10.6289ZM87.8184 10.834V10.6289C87.8184 10.1016 87.763 9.60677 87.6523 9.14453C87.5417 8.67578 87.3691 8.26562 87.1348 7.91406C86.9069 7.55599 86.6139 7.27604 86.2559 7.07422C85.8978 6.86589 85.4714 6.76172 84.9766 6.76172C84.5208 6.76172 84.1237 6.83984 83.7852 6.99609C83.4531 7.15234 83.1699 7.36393 82.9355 7.63086C82.7012 7.89128 82.5091 8.19076 82.3594 8.5293C82.2161 8.86133 82.1087 9.20638 82.0371 9.56445V12.0938C82.1673 12.5495 82.3496 12.9792 82.584 13.3828C82.8184 13.7799 83.1309 14.1022 83.5215 14.3496C83.9121 14.5905 84.4036 14.7109 84.9961 14.7109C85.4844 14.7109 85.9043 14.61 86.2559 14.4082C86.6139 14.1999 86.9069 13.9167 87.1348 13.5586C87.3691 13.2005 87.5417 12.7904 87.6523 12.3281C87.763 11.8594 87.8184 11.3613 87.8184 10.834ZM94.0781 10.9609H96.0312L92.9746 16H91.0215L94.0781 10.9609ZM95.5918 5.43359H100.006V16H98.1992V6.89844H95.5918C95.0775 6.89844 94.6576 6.98633 94.332 7.16211C94.0065 7.33138 93.7689 7.55273 93.6191 7.82617C93.4694 8.09961 93.3945 8.38281 93.3945 8.67578C93.3945 8.96224 93.4629 9.23893 93.5996 9.50586C93.7363 9.76628 93.9512 9.98112 94.2441 10.1504C94.5371 10.3197 94.9147 10.4043 95.377 10.4043H98.6875V11.8887H95.377C94.7715 11.8887 94.2344 11.8073 93.7656 11.6445C93.2969 11.4818 92.8997 11.2572 92.5742 10.9707C92.2487 10.6777 92.0013 10.3359 91.832 9.94531C91.6628 9.54818 91.5781 9.11849 91.5781 8.65625C91.5781 8.19401 91.666 7.76758 91.8418 7.37695C92.0241 6.98633 92.2845 6.64453 92.623 6.35156C92.9681 6.05859 93.388 5.83398 93.8828 5.67773C94.3841 5.51497 94.9538 5.43359 95.5918 5.43359Z" fill="black"/>
</svg>
